<?xml version="1.0" encoding="UTF-8"?><svg id="Layer_2" xmlns="http://www.w3.org/2000/svg" width="32" height="32" viewBox="0 0 32 32"><defs><style>.cls-1{fill:#303030;}.cls-1,.cls-2{stroke-width:0px;}.cls-2{fill:#757575;}</style></defs><g id="Layer_1-2"><rect class="cls-1" width="32" height="32"/><path class="cls-2" d="M11.9088,28.964c-.5542,0-1.0863-.267-1.4274-.7377-.3809-.5257-.6917-1.2911-1.0076-2.4818-.2371-.8936-.4514-1.9272-.6586-2.9268-.0107-.0516-.0214-.1031-.032-.1544-.0324.0517-.0649.1013-.0976.1488-.2888.4188-.6167.708-1.0024.8842-.4855.2217-1.024.2395-1.5165.0503-.6122-.2353-1.277-.7645-2.1555-1.716-.5398-.5847-.9664-1.1235-.9843-1.1461-.5746-.7272-.4508-1.7823.2766-2.3568.7274-.5744,1.7828-.4506,2.3574.2765.0028.0036.3317.4182.7487.8759.0111.0121.0221.0242.0329.036.0632-.1703.1262-.3446.1883-.5163.1737-.4803.3378-.934.5073-1.311.1211-.2694.235-.4777.3584-.6556.4224-.609.9419-.8057,1.3033-.8634.3703-.0592.7437-.0018,1.0798.1657.247.1231.461.2991.6363.5231.3753.4798.6643,1.1718.9661,2.314.0657.2486.1301.5118.1936.7845.0724-.47.1461-.9517.2208-1.4403.5019-3.2803,1.0707-6.9983,1.6537-9.8267.3115-1.5114.6004-2.6438.8831-3.4618.1859-.5378.3754-.9561.5795-1.2787.1659-.2623.3467-.4727.5528-.6432.372-.3077.812-.4704,1.2725-.4704.5431,0,1.3343.2084,2.0195,1.2011.282.4085.5493.9491.8172,1.6529.8141,2.1381,1.5579,5.5733,2.2771,8.8955.3105,1.4343.6038,2.789.8854,3.9556.0359.1487.071.2919.1053.4293.0922-.1861.1863-.3769.2818-.5706.6987-1.417,1.4212-2.8822,2.1158-3.9218.542-.8112,1.0211-1.2939,1.5532-1.5651.8258-.4208,1.8366-.0927,2.2576.7329.4059.796.1153,1.7638-.6462,2.2094-.0455.0453-.1674.1787-.3733.4868-.5723.8566-1.2757,2.283-1.8963,3.5416-.4603.9335-.8951,1.8152-1.2854,2.4958-.2432.4241-.4489.7358-.6474.9809-.1601.1978-.3197.3566-.4878.4856-.453.3474-.8987.4204-1.1928.4204-.4678,0-.9097-.171-1.2778-.4944-.1859-.1634-.3493-.3622-.4995-.6078-.18-.2944-.3444-.6602-.5175-1.151-.2269-.6437-.4662-1.4968-.753-2.6847-.2909-1.2052-.5883-2.5788-.9032-4.033-.5082-2.3476-1.0687-4.9362-1.6299-6.8714-.0665.2945-.1343.6092-.2032.9432-.5655,2.7439-1.1275,6.4166-1.6232,9.6569-.3384,2.2118-.658,4.3009-.939,5.8368-.1559.8522-.2918,1.4892-.4153,1.9475-.0841.3119-.1643.5504-.2524.7505-.0782.1777-.1651.33-.2658.4657-.3307.4457-.7404.6216-1.0259.6907-.1355.0328-.2723.0487-.4077.0488Z"/></g></svg>